Nobile-black.ufo
<glyph name="exclam" format="1">
  <advance width="841"/>
  <unicode hex="0021"/>
  <outline>
    <contour>
      <point x="394" y="-10" type="curve" smooth="yes"/>
      <point x="548" y="-10"/>
      <point x="657" y="29"/>
      <point x="657" y="180" type="curve" smooth="yes"/>
      <point x="657" y="330"/>
      <point x="627" y="450"/>
      <point x="475" y="450" type="curve" smooth="yes"/>
      <point x="322" y="450"/>
      <point x="214" y="409"/>
      <point x="214" y="259" type="curve" smooth="yes"/>
      <point x="214" y="107"/>
      <point x="241" y="-10"/>
    </contour>
    <contour>
      <point x="238" y="489" type="line"/>
      <point x="529" y="32" type="line"/>
      <point x="746" y="1511" type="line"/>
      <point x="151" y="1968" type="line"/>
    </contour>
  </outline>
</glyph>
<glyph name="percent" format="1">
  <advance width="2379"/>
  <unicode hex="0025"/>
  <outline>
    <contour>
      <point x="617" y="967" type="curve" smooth="yes"/>
      <point x="559" y="967"/>
      <point x="474" y="961"/>
      <point x="474" y="1172" type="curve" smooth="yes"/>
      <point x="474" y="1352"/>
      <point x="540" y="1374"/>
      <point x="617" y="1374" type="curve" smooth="yes"/>
      <point x="686" y="1374"/>
      <point x="766" y="1374"/>
      <point x="766" y="1172" type="curve" smooth="yes"/>
      <point x="766" y="990"/>
      <point x="696" y="967"/>
    </contour>
    <contour>
      <point x="617" y="724" type="curve" smooth="yes"/>
      <point x="986" y="724"/>
      <point x="1052" y="1012"/>
      <point x="1052" y="1183" type="curve" smooth="yes"/>
      <point x="1052" y="1359"/>
      <point x="963" y="1612"/>
      <point x="606" y="1612" type="curve" smooth="yes"/>
      <point x="484" y="1612"/>
      <point x="205" y="1606"/>
      <point x="205" y="1153" type="curve" smooth="yes"/>
      <point x="205" y="1014"/>
      <point x="272" y="724"/>
    </contour>
    <contour>
      <point x="866" y="-140" type="line"/>
      <point x="1677" y="1655" type="line"/>
      <point x="1412" y="1743" type="line"/>
      <point x="612" y="-55" type="line"/>
    </contour>
    <contour>
      <point x="1732" y="251" type="curve" smooth="yes"/>
      <point x="1676" y="251"/>
      <point x="1589" y="245"/>
      <point x="1589" y="457" type="curve" smooth="yes"/>
      <point x="1589" y="637"/>
      <point x="1656" y="659"/>
      <point x="1732" y="659" type="curve" smooth="yes"/>
      <point x="1804" y="659"/>
      <point x="1881" y="659"/>
      <point x="1881" y="457" type="curve" smooth="yes"/>
      <point x="1881" y="274"/>
      <point x="1811" y="251"/>
    </contour>
    <contour>
      <point x="1732" y="8" type="curve"/>
      <point x="2091" y="12"/>
      <point x="2167" y="281"/>
      <point x="2167" y="468" type="curve" smooth="yes"/>
      <point x="2167" y="650"/>
      <point x="2075" y="896"/>
      <point x="1721" y="896" type="curve" smooth="yes"/>
      <point x="1599" y="896"/>
      <point x="1320" y="890"/>
      <point x="1320" y="437" type="curve" smooth="yes"/>
      <point x="1320" y="298"/>
      <point x="1387" y="8"/>
    </contour>
  </outline>
</glyph>
<glyph name="ampersand" format="1">
  <advance width="1879"/>
  <unicode hex="0026"/>
  <outline>
    <contour>
      <point x="1736" y="-72" type="line"/>
      <point x="1908" y="144" type="line"/>
      <point x="1626" y="388" type="line"/>
      <point x="1614" y="323"/>
      <point x="1682" y="770"/>
      <point x="1682" y="932" type="curve"/>
      <point x="1347" y="942" type="line"/>
      <point x="1347" y="994"/>
      <point x="1349" y="558"/>
      <point x="1353" y="610" type="curve"/>
      <point x="1098" y="843" type="line"/>
      <point x="1300" y="922"/>
      <point x="1353" y="1151"/>
      <point x="1353" y="1334" type="curve" smooth="yes"/>
      <point x="1353" y="1525"/>
      <point x="1166" y="1677"/>
      <point x="874" y="1677" type="curve" smooth="yes"/>
      <point x="590" y="1677"/>
      <point x="367" y="1541"/>
      <point x="367" y="1328" type="curve" smooth="yes"/>
      <point x="367" y="1141"/>
      <point x="524" y="983"/>
      <point x="584" y="926" type="curve"/>
      <point x="410" y="836"/>
      <point x="211" y="738"/>
      <point x="211" y="450" type="curve" smooth="yes"/>
      <point x="211" y="104"/>
      <point x="499" y="-40"/>
      <point x="897" y="-40" type="curve" smooth="yes"/>
      <point x="1223" y="-40"/>
      <point x="1379" y="35"/>
      <point x="1486" y="139" type="curve"/>
    </contour>
    <contour>
      <point x="852" y="1077" type="curve"/>
      <point x="782" y="1121"/>
      <point x="717" y="1188"/>
      <point x="717" y="1289" type="curve" smooth="yes"/>
      <point x="717" y="1366"/>
      <point x="763" y="1417"/>
      <point x="886" y="1417" type="curve" smooth="yes"/>
      <point x="998" y="1417"/>
      <point x="1051" y="1369"/>
      <point x="1051" y="1280" type="curve" smooth="yes"/>
      <point x="1051" y="1168"/>
      <point x="959" y="1112"/>
    </contour>
    <contour>
      <point x="897" y="276" type="curve" smooth="yes"/>
      <point x="659" y="276"/>
      <point x="575" y="368"/>
      <point x="575" y="475" type="curve" smooth="yes"/>
      <point x="575" y="611"/>
      <point x="704" y="663"/>
      <point x="840" y="701" type="curve"/>
      <point x="1233" y="348" type="line"/>
      <point x="1267" y="395"/>
      <point x="1182" y="276"/>
    </contour>
  </outline>
</glyph>
<glyph name="parenleft" format="1">
  <advance width="968"/>
  <unicode hex="0028"/>
  <outline>
    <contour>
      <point x="664" y="-344" type="curve"/>
      <point x="852" y="-93" type="line"/>
      <point x="684" y="81"/>
      <point x="548" y="315"/>
      <point x="548" y="675" type="curve" smooth="yes"/>
      <point x="548" y="1026"/>
      <point x="681" y="1303"/>
      <point x="841" y="1458" type="curve"/>
      <point x="663" y="1712" type="line"/>
      <point x="401" y="1510"/>
      <point x="178" y="1169"/>
      <point x="178" y="674" type="curve" smooth="yes"/>
      <point x="178" y="181"/>
      <point x="406" y="-138"/>
    </contour>
  </outline>
</glyph>
<glyph name="comma" format="1">
  <advance width="799"/>
  <unicode hex="002C"/>
  <outline>
    <contour>
      <point x="245" y="-328" type="line"/>
      <point x="422" y="-275"/>
      <point x="649" y="-217"/>
      <point x="649" y="56" type="curve" smooth="yes"/>
      <point x="649" y="462" type="line"/>
      <point x="178" y="462" type="line"/>
      <point x="178" y="0" type="line"/>
      <point x="374" y="0" type="line"/>
      <point x="374" y="-105"/>
      <point x="322" y="-154"/>
      <point x="179" y="-206" type="curve"/>
    </contour>
  </outline>
</glyph>
<glyph name="slash" format="1">
  <advance width="988"/>
  <unicode hex="002F"/>
  <outline>
    <contour>
      <point x="448" y="-135" type="line"/>
      <point x="1005" y="1543" type="line"/>
      <point x="681" y="1642" type="line"/>
      <point x="131" y="-38" type="line"/>
    </contour>
  </outline>
</glyph>
<glyph name="four" format="1">
  <advance width="1292"/>
  <unicode hex="0034"/>
  <outline>
    <contour>
      <point x="663" y="-200" type="line"/>
      <point x="996" y="-200" type="line"/>
      <point x="996" y="56" type="line"/>
      <point x="1174" y="56" type="line"/>
      <point x="1174" y="360" type="line"/>
      <point x="996" y="360" type="line"/>
      <point x="996" y="1144" type="line"/>
      <point x="709" y="1220" type="line"/>
      <point x="74" y="281" type="line"/>
      <point x="120" y="56" type="line"/>
      <point x="663" y="56" type="line"/>
    </contour>
    <contour>
      <point x="464" y="358" type="line"/>
      <point x="663" y="657" type="line"/>
      <point x="663" y="358" type="line"/>
    </contour>
  </outline>
</glyph>
<glyph name="five" format="1">
  <advance width="1245"/>
  <unicode hex="0035"/>
  <outline>
    <contour>
      <point x="590" y="-174" type="curve" smooth="yes"/>
      <point x="883" y="-174"/>
      <point x="1095" y="22"/>
      <point x="1095" y="290" type="curve" smooth="yes"/>
      <point x="1095" y="576"/>
      <point x="920" y="758"/>
      <point x="625" y="758" type="curve" smooth="yes"/>
      <point x="544" y="758"/>
      <point x="499" y="712"/>
      <point x="519" y="729" type="curve" smooth="yes"/>
      <point x="519" y="888" type="line"/>
      <point x="1013" y="888" type="line"/>
      <point x="1013" y="1169" type="line"/>
      <point x="186" y="1169" type="line"/>
      <point x="186" y="554" type="line"/>
      <point x="353" y="408" type="line"/>
      <point x="457" y="467"/>
      <point x="529" y="484"/>
      <point x="584" y="484" type="curve" smooth="yes"/>
      <point x="688" y="484"/>
      <point x="747" y="411"/>
      <point x="747" y="294" type="curve" smooth="yes"/>
      <point x="747" y="194"/>
      <point x="679" y="141"/>
      <point x="559" y="141" type="curve" smooth="yes"/>
      <point x="401" y="141"/>
      <point x="296" y="183"/>
      <point x="195" y="211" type="curve"/>
      <point x="156" y="-81" type="line"/>
      <point x="275" y="-134"/>
      <point x="459" y="-174"/>
    </contour>
  </outline>
</glyph>
<glyph name="colon" format="1">
  <advance width="848"/>
  <unicode hex="003A"/>
  <outline>
    <contour>
      <point x="200" y="0" type="line"/>
      <point x="649" y="0" type="line"/>
      <point x="649" y="490" type="line"/>
      <point x="200" y="490" type="line"/>
    </contour>
    <contour>
      <point x="200" y="795" type="line"/>
      <point x="649" y="795" type="line"/>
      <point x="649" y="1280" type="line"/>
      <point x="200" y="1280" type="line"/>
    </contour>
  </outline>
</glyph>
<glyph name="equal" format="1">
  <advance width="1325"/>
  <unicode hex="003D"/>
  <outline>
    <contour>
      <point x="59" y="265" type="line"/>
      <point x="1213" y="265" type="line"/>
      <point x="1213" y="537" type="line"/>
      <point x="59" y="537" type="line"/>
    </contour>
    <contour>
      <point x="59" y="697" type="line"/>
      <point x="1213" y="697" type="line"/>
      <point x="1213" y="969" type="line"/>
      <point x="59" y="969" type="line"/>
    </contour>
  </outline>
</glyph>
<glyph name="D" format="1">
  <advance width="1605"/>
  <unicode hex="0044"/>
  <outline>
    <contour>
      <point x="610" y="297" type="line"/>
      <point x="610" y="1283" type="line"/>
      <point x="594" y="1283" type="line" smooth="yes"/>
      <point x="997" y="1283"/>
      <point x="1070" y="1166"/>
      <point x="1070" y="783" type="curve" smooth="yes"/>
      <point x="1070" y="400"/>
      <point x="979" y="297"/>
      <point x="594" y="297" type="curve" smooth="yes"/>
    </contour>
    <contour>
      <point x="174" y="0" type="line"/>
      <point x="648" y="0" type="line" smooth="yes"/>
      <point x="1180" y="0"/>
      <point x="1509" y="219"/>
      <point x="1509" y="780" type="curve" smooth="yes"/>
      <point x="1509" y="1349"/>
      <point x="1194" y="1578"/>
      <point x="648" y="1578" type="curve" smooth="yes"/>
      <point x="174" y="1578" type="line"/>
    </contour>
  </outline>
</glyph>
<glyph name="E" format="1">
  <advance width="1329"/>
  <unicode hex="0045"/>
  <outline>
    <contour>
      <point x="174" y="0" type="line"/>
      <point x="1231" y="0" type="line"/>
      <point x="1231" y="316" type="line"/>
      <point x="609" y="316" type="line"/>
      <point x="609" y="675" type="line"/>
      <point x="1163" y="675" type="line"/>
      <point x="1163" y="944" type="line"/>
      <point x="609" y="944" type="line"/>
      <point x="609" y="1261" type="line"/>
      <point x="1223" y="1261" type="line"/>
      <point x="1223" y="1578" type="line"/>
      <point x="174" y="1578" type="line"/>
    </contour>
  </outline>
</glyph>
<glyph name="F" format="1">
  <advance width="1286"/>
  <unicode hex="0046"/>
  <outline>
    <contour>
      <point x="174" y="0" type="line"/>
      <point x="608" y="0" type="line"/>
      <point x="608" y="614" type="line"/>
      <point x="1192" y="614" type="line"/>
      <point x="1192" y="882" type="line"/>
      <point x="608" y="882" type="line"/>
      <point x="608" y="1261" type="line"/>
      <point x="1288" y="1261" type="line"/>
      <point x="1288" y="1578" type="line"/>
      <point x="174" y="1578" type="line"/>
    </contour>
  </outline>
</glyph>
<glyph name="H" format="1">
  <advance width="1677"/>
  <unicode hex="0048"/>
  <outline>
    <contour>
      <point x="174" y="0" type="line"/>
      <point x="610" y="0" type="line"/>
      <point x="610" y="681" type="line"/>
      <point x="1066" y="681" type="line"/>
      <point x="1066" y="0" type="line"/>
      <point x="1503" y="0" type="line"/>
      <point x="1503" y="1578" type="line"/>
      <point x="1066" y="1578" type="line"/>
      <point x="1066" y="950" type="line"/>
      <point x="610" y="950" type="line"/>
      <point x="610" y="1578" type="line"/>
      <point x="174" y="1578" type="line"/>
    </contour>
  </outline>
</glyph>
<glyph name="I" format="1">
  <advance width="897"/>
  <unicode hex="0049"/>
  <outline>
    <contour>
      <point x="71" y="0" type="line"/>
      <point x="826" y="0" type="line"/>
      <point x="826" y="288" type="line"/>
      <point x="669" y="288" type="line"/>
      <point x="669" y="1292" type="line"/>
      <point x="826" y="1292" type="line"/>
      <point x="826" y="1578" type="line"/>
      <point x="71" y="1578" type="line"/>
      <point x="71" y="1292" type="line"/>
      <point x="228" y="1292" type="line"/>
      <point x="228" y="288" type="line"/>
      <point x="71" y="288" type="line"/>
    </contour>
  </outline>
</glyph>
<glyph name="K" format="1">
  <advance width="1525"/>
  <unicode hex="004B"/>
  <outline>
    <contour>
      <point x="174" y="0" type="line"/>
      <point x="610" y="0" type="line"/>
      <point x="610" y="635" type="line"/>
      <point x="619" y="635" type="line"/>
      <point x="1039" y="0" type="line"/>
      <point x="1563" y="0" type="line"/>
      <point x="1026" y="778" type="line"/>
      <point x="1533" y="1578" type="line"/>
      <point x="1040" y="1578" type="line"/>
      <point x="634" y="920" type="line"/>
      <point x="610" y="920" type="line"/>
      <point x="610" y="1578" type="line"/>
      <point x="174" y="1578" type="line"/>
    </contour>
  </outline>
</glyph>
<glyph name="L" format="1">
  <advance width="1205"/>
  <unicode hex="004C"/>
  <outline>
    <contour>
      <point x="174" y="0" type="line"/>
      <point x="1184" y="0" type="line"/>
      <point x="1184" y="316" type="line"/>
      <point x="609" y="316" type="line"/>
      <point x="609" y="1578" type="line"/>
      <point x="174" y="1578" type="line"/>
    </contour>
  </outline>
</glyph>
<glyph name="N" format="1">
  <advance width="1710"/>
  <unicode hex="004E"/>
  <outline>
    <contour>
      <point x="174" y="0" type="line"/>
      <point x="563" y="0" type="line"/>
      <point x="563" y="946" type="line"/>
      <point x="1109" y="0" type="line"/>
      <point x="1536" y="0" type="line"/>
      <point x="1536" y="1578" type="line"/>
      <point x="1149" y="1578" type="line"/>
      <point x="1149" y="652" type="line"/>
      <point x="619" y="1578" type="line"/>
      <point x="174" y="1578" type="line"/>
    </contour>
  </outline>
</glyph>
<glyph name="O" format="1">
  <advance width="1668"/>
  <unicode hex="004F"/>
  <outline>
    <contour>
      <point x="835" y="279" type="curve" smooth="yes"/>
      <point x="607" y="279"/>
      <point x="538" y="492"/>
      <point x="538" y="791" type="curve" smooth="yes"/>
      <point x="538" y="1090"/>
      <point x="607" y="1293"/>
      <point x="835" y="1293" type="curve" smooth="yes"/>
      <point x="1060" y="1293"/>
      <point x="1130" y="1092"/>
      <point x="1130" y="791" type="curve" smooth="yes"/>
      <point x="1130" y="501"/>
      <point x="1067" y="279"/>
    </contour>
    <contour>
      <point x="835" y="-31" type="curve" smooth="yes"/>
      <point x="1327" y="-31"/>
      <point x="1571" y="267"/>
      <point x="1571" y="791" type="curve" smooth="yes"/>
      <point x="1571" y="1323"/>
      <point x="1310" y="1603"/>
      <point x="835" y="1603" type="curve" smooth="yes"/>
      <point x="357" y="1603"/>
      <point x="97" y="1336"/>
      <point x="97" y="791" type="curve" smooth="yes"/>
      <point x="97" y="267"/>
      <point x="341" y="-31"/>
    </contour>
  </outline>
</glyph>
<glyph name="T" format="1">
  <advance width="1165"/>
  <unicode hex="0054"/>
  <outline>
    <contour>
      <point x="367" y="0" type="line"/>
      <point x="806" y="0" type="line"/>
      <point x="806" y="1261" type="line"/>
      <point x="1186" y="1261" type="line"/>
      <point x="1186" y="1578" type="line"/>
      <point x="-22" y="1578" type="line"/>
      <point x="-22" y="1261" type="line"/>
      <point x="367" y="1261" type="line"/>
    </contour>
  </outline>
</glyph>
<glyph name="V" format="1">
  <advance width="1493"/>
  <unicode hex="0056"/>
  <outline>
    <contour>
      <point x="538" y="0" type="line"/>
      <point x="951" y="0" type="line"/>
      <point x="1443" y="1578" type="line"/>
      <point x="1033" y="1578" type="line"/>
      <point x="752" y="533" type="line"/>
      <point x="441" y="1578" type="line"/>
      <point x="38" y="1578" type="line"/>
    </contour>
  </outline>
</glyph>
<glyph name="X" format="1">
  <advance width="1391"/>
  <unicode hex="0058"/>
  <outline>
    <contour>
      <point x="-26" y="0" type="line"/>
      <point x="432" y="0" type="line"/>
      <point x="382" y="-84"/>
      <point x="746" y="517"/>
      <point x="696" y="434" type="curve"/>
      <point x="959" y="0" type="line"/>
      <point x="1417" y="0" type="line"/>
      <point x="939" y="796" type="line"/>
      <point x="1417" y="1578" type="line"/>
      <point x="962" y="1578" type="line"/>
      <point x="696" y="1113" type="line"/>
      <point x="429" y="1578" type="line"/>
      <point x="-26" y="1578" type="line"/>
      <point x="452" y="796" type="line"/>
    </contour>
  </outline>
</glyph>
<glyph name="Z" format="1">
  <advance width="1245"/>
  <unicode hex="005A"/>
  <outline>
    <contour>
      <point x="31" y="0" type="line"/>
      <point x="1180" y="0" type="line"/>
      <point x="1180" y="316" type="line"/>
      <point x="507" y="316" type="line"/>
      <point x="1178" y="1329" type="line"/>
      <point x="1178" y="1578" type="line"/>
      <point x="31" y="1578" type="line"/>
      <point x="31" y="1257" type="line"/>
      <point x="680" y="1257" type="line"/>
      <point x="31" y="278" type="line"/>
    </contour>
  </outline>
</glyph>
<glyph name="backslash" format="1">
  <advance width="1362"/>
  <unicode hex="005C"/>
  <outline>
    <contour>
      <point x="796" y="-137" type="line"/>
      <point x="1178" y="-6" type="line"/>
      <point x="627" y="1670" type="line"/>
      <point x="243" y="1539" type="line"/>
    </contour>
  </outline>
</glyph>
<glyph name="bracketright" format="1">
  <advance width="1257"/>
  <unicode hex="005D"/>
  <outline>
    <contour>
      <point x="273" y="0" type="line"/>
      <point x="1056" y="0" type="line"/>
      <point x="1056" y="1578" type="line"/>
      <point x="273" y="1578" type="line"/>
      <point x="273" y="1270" type="line"/>
      <point x="667" y="1270" type="line"/>
      <point x="667" y="308" type="line"/>
      <point x="273" y="308" type="line"/>
    </contour>
  </outline>
</glyph>
<glyph name="asciicircum" format="1">
  <advance width="1365"/>
  <unicode hex="005E"/>
  <outline>
    <contour>
      <point x="280" y="584" type="line"/>
      <point x="608" y="614" type="line"/>
      <point x="681" y="1000" type="line"/>
      <point x="754" y="614" type="line"/>
      <point x="1085" y="584" type="line"/>
      <point x="840" y="1248" type="line"/>
      <point x="525" y="1248" type="line"/>
    </contour>
  </outline>
</glyph>
<glyph name="underscore" format="1">
  <advance width="1108"/>
  <unicode hex="005F"/>
  <outline>
    <contour>
      <point x="45" y="-93" type="line"/>
      <point x="1063" y="-93" type="line"/>
      <point x="1063" y="215" type="line"/>
      <point x="45" y="215" type="line"/>
    </contour>
  </outline>
</glyph>
<glyph name="a" format="1">
  <advance width="1261"/>
  <unicode hex="0061"/>
  <outline>
    <contour>
      <point x="480" y="-28" type="curve" smooth="yes"/>
      <point x="610" y="-28"/>
      <point x="737" y="84"/>
      <point x="770" y="139" type="curve"/>
      <point x="826" y="0" type="line"/>
      <point x="1147" y="0" type="line"/>
      <point x="1147" y="669" type="line" smooth="yes"/>
      <point x="1147" y="1004"/>
      <point x="997" y="1198"/>
      <point x="649" y="1198" type="curve" smooth="yes"/>
      <point x="485" y="1198"/>
      <point x="305" y="1175"/>
      <point x="164" y="1085" type="curve"/>
      <point x="252" y="844" type="line"/>
      <point x="376" y="895"/>
      <point x="527" y="925"/>
      <point x="601" y="918" type="curve" smooth="yes"/>
      <point x="698" y="907"/>
      <point x="737" y="833"/>
      <point x="740" y="766" type="curve" smooth="yes"/>
      <point x="740" y="745"/>
      <point x="738" y="732"/>
      <point x="738" y="711" type="curve"/>
      <point x="699" y="722"/>
      <point x="656" y="726"/>
      <point x="619" y="733" type="curve" smooth="yes"/>
      <point x="419" y="761"/>
      <point x="88" y="683"/>
      <point x="88" y="368" type="curve" smooth="yes"/>
      <point x="88" y="109"/>
      <point x="229" y="-28"/>
    </contour>
    <contour>
      <point x="592" y="243" type="curve" smooth="yes"/>
      <point x="520" y="243"/>
      <point x="451" y="290"/>
      <point x="443" y="348" type="curve" smooth="yes"/>
      <point x="426" y="510"/>
      <point x="560" y="516"/>
      <point x="687" y="516" type="curve" smooth="yes"/>
      <point x="697" y="516"/>
      <point x="727" y="508"/>
      <point x="738" y="507" type="curve"/>
      <point x="738" y="313" type="line"/>
      <point x="699" y="264"/>
      <point x="653" y="243"/>
    </contour>
  </outline>
</glyph>
<glyph name="b" format="1">
  <advance width="1340"/>
  <unicode hex="0062"/>
  <outline>
    <contour>
      <point x="812" y="-28" type="curve" smooth="yes"/>
      <point x="1113" y="-28"/>
      <point x="1281" y="159"/>
      <point x="1281" y="588" type="curve" smooth="yes"/>
      <point x="1281" y="982"/>
      <point x="1131" y="1198"/>
      <point x="874" y="1198" type="curve" smooth="yes"/>
      <point x="739" y="1198"/>
      <point x="633" y="1165"/>
      <point x="555" y="1072" type="curve"/>
      <point x="555" y="1647" type="line"/>
      <point x="141" y="1578" type="line"/>
      <point x="141" y="0" type="line"/>
      <point x="427" y="0" type="line"/>
      <point x="521" y="161" type="line"/>
      <point x="555" y="88"/>
      <point x="638" y="-28"/>
    </contour>
    <contour>
      <point x="697" y="232" type="curve" smooth="yes"/>
      <point x="644" y="232"/>
      <point x="599" y="253"/>
      <point x="555" y="305" type="curve"/>
      <point x="555" y="838" type="line"/>
      <point x="632" y="914"/>
      <point x="678" y="943"/>
      <point x="740" y="943" type="curve" smooth="yes"/>
      <point x="807" y="943"/>
      <point x="866" y="929"/>
      <point x="866" y="587" type="curve" smooth="yes"/>
      <point x="866" y="305"/>
      <point x="789" y="232"/>
    </contour>
  </outline>
</glyph>
<glyph name="c" format="1">
  <advance width="1071"/>
  <unicode hex="0063"/>
  <outline>
    <contour>
      <point x="710" y="-28" type="curve" smooth="yes"/>
      <point x="844" y="-26"/>
      <point x="974" y="12"/>
      <point x="1060" y="89" type="curve"/>
      <point x="963" y="297" type="line"/>
      <point x="884" y="255"/>
      <point x="815" y="239"/>
      <point x="734" y="247" type="curve" smooth="yes"/>
      <point x="572" y="264"/>
      <point x="480" y="414"/>
      <point x="480" y="609" type="curve" smooth="yes"/>
      <point x="480" y="799"/>
      <point x="578" y="902"/>
      <point x="716" y="925" type="curve" smooth="yes"/>
      <point x="816" y="939"/>
      <point x="917" y="875"/>
      <point x="947" y="862" type="curve"/>
      <point x="1034" y="1111" type="line"/>
      <point x="940" y="1157"/>
      <point x="865" y="1198"/>
      <point x="680" y="1198" type="curve" smooth="yes"/>
      <point x="331" y="1198"/>
      <point x="62" y="938"/>
      <point x="62" y="568" type="curve" smooth="yes"/>
      <point x="62" y="143"/>
      <point x="363" y="-33"/>
    </contour>
  </outline>
</glyph>
<glyph name="d" format="1">
  <advance width="1371"/>
  <unicode hex="0064"/>
  <outline>
    <contour>
      <point x="580" y="-21" type="curve" smooth="yes"/>
      <point x="710" y="-12"/>
      <point x="790" y="56"/>
      <point x="849" y="161" type="curve"/>
      <point x="944" y="0" type="line"/>
      <point x="1232" y="0" type="line"/>
      <point x="1232" y="1647" type="line"/>
      <point x="819" y="1578" type="line"/>
      <point x="819" y="1053" type="line"/>
      <point x="749" y="1153"/>
      <point x="667" y="1198"/>
      <point x="531" y="1198" type="curve" smooth="yes"/>
      <point x="281" y="1198"/>
      <point x="65" y="981"/>
      <point x="65" y="639" type="curve" smooth="yes"/>
      <point x="65" y="319"/>
      <point x="181" y="-49"/>
    </contour>
    <contour>
      <point x="680" y="246" type="curve" smooth="yes"/>
      <point x="592" y="246"/>
      <point x="480" y="317"/>
      <point x="480" y="586" type="curve" smooth="yes"/>
      <point x="480" y="856"/>
      <point x="547" y="929"/>
      <point x="629" y="929" type="curve" smooth="yes"/>
      <point x="686" y="929"/>
      <point x="748" y="906"/>
      <point x="819" y="838" type="curve"/>
      <point x="819" y="304" type="line"/>
      <point x="794" y="261"/>
      <point x="764" y="246"/>
    </contour>
  </outline>
</glyph>
<glyph name="e" format="1">
  <advance width="1224"/>
  <unicode hex="0065"/>
  <outline>
    <contour>
      <point x="692" y="-28" type="curve" smooth="yes"/>
      <point x="831" y="-28"/>
      <point x="951" y="0"/>
      <point x="1085" y="56" type="curve"/>
      <point x="1017" y="333" type="line"/>
      <point x="935" y="276"/>
      <point x="840" y="249"/>
      <point x="725" y="249" type="curve" smooth="yes"/>
      <point x="598" y="249"/>
      <point x="488" y="325"/>
      <point x="480" y="478" type="curve"/>
      <point x="1145" y="478" type="line"/>
      <point x="1142" y="464"/>
      <point x="1140" y="677"/>
      <point x="1140" y="662" type="curve" smooth="yes"/>
      <point x="1140" y="988"/>
      <point x="963" y="1198"/>
      <point x="647" y="1198" type="curve" smooth="yes"/>
      <point x="265" y="1198"/>
      <point x="53" y="929"/>
      <point x="53" y="534" type="curve" smooth="yes"/>
      <point x="53" y="157"/>
      <point x="330" y="-28"/>
    </contour>
    <contour>
      <point x="463" y="674" type="line"/>
      <point x="457" y="822"/>
      <point x="530" y="922"/>
      <point x="639" y="922" type="curve" smooth="yes"/>
      <point x="753" y="922"/>
      <point x="820" y="859"/>
      <point x="825" y="682" type="curve" smooth="yes"/>
      <point x="825" y="675"/>
      <point x="825" y="681"/>
      <point x="825" y="674" type="curve"/>
    </contour>
  </outline>
</glyph>
<glyph name="f" format="1">
  <advance width="905"/>
  <unicode hex="0066"/>
  <outline>
    <contour>
      <point x="207" y="0" type="line"/>
      <point x="619" y="0" type="line"/>
      <point x="619" y="981" type="line"/>
      <point x="874" y="981" type="line"/>
      <point x="874" y="1162" type="line"/>
      <point x="621" y="1162" type="line"/>
      <point x="621" y="1351"/>
      <point x="684" y="1359"/>
      <point x="750" y="1359" type="curve" smooth="yes"/>
      <point x="804" y="1359"/>
      <point x="845" y="1357"/>
      <point x="890" y="1347" type="curve"/>
      <point x="869" y="1659" type="line"/>
      <point x="787" y="1665"/>
      <point x="719" y="1663"/>
      <point x="645" y="1663" type="curve" smooth="yes"/>
      <point x="367" y="1663"/>
      <point x="207" y="1506"/>
      <point x="207" y="1162" type="curve"/>
      <point x="19" y="1162" type="line"/>
      <point x="19" y="981" type="line"/>
      <point x="207" y="981" type="line"/>
    </contour>
  </outline>
</glyph>
<glyph name="g" format="1">
  <advance width="1325"/>
  <unicode hex="0067"/>
  <outline>
    <contour>
      <point x="532" y="-602" type="curve" smooth="yes"/>
      <point x="805" y="-602"/>
      <point x="1266" y="-545"/>
      <point x="1266" y="-152" type="curve" smooth="yes"/>
      <point x="1266" y="182"/>
      <point x="1072" y="234"/>
      <point x="698" y="234" type="curve" smooth="yes"/>
      <point x="620" y="234"/>
      <point x="548" y="234"/>
      <point x="476" y="234" type="curve"/>
      <point x="469" y="243"/>
      <point x="453" y="264"/>
      <point x="453" y="277" type="curve" smooth="yes"/>
      <point x="453" y="320"/>
      <point x="497" y="375"/>
      <point x="497" y="375" type="curve" smooth="yes"/>
      <point x="548" y="356"/>
      <point x="655" y="370"/>
      <point x="655" y="370" type="curve" smooth="yes"/>
      <point x="926" y="370"/>
      <point x="1149" y="480"/>
      <point x="1149" y="757" type="curve" smooth="yes"/>
      <point x="1150" y="806"/>
      <point x="1127" y="905"/>
      <point x="1092" y="950" type="curve"/>
      <point x="1329" y="950" type="line"/>
      <point x="1329" y="1207" type="line"/>
      <point x="1183" y="1207"/>
      <point x="1073" y="1207"/>
      <point x="935" y="1149" type="curve"/>
      <point x="840" y="1201"/>
      <point x="691" y="1202"/>
      <point x="586" y="1202" type="curve" smooth="yes"/>
      <point x="386" y="1202"/>
      <point x="83" y="1110"/>
      <point x="83" y="824" type="curve" smooth="yes"/>
      <point x="83" y="639"/>
      <point x="134" y="513"/>
      <point x="315" y="441" type="curve"/>
      <point x="274" y="428"/>
      <point x="109" y="369"/>
      <point x="109" y="214" type="curve" smooth="yes"/>
      <point x="109" y="127"/>
      <point x="173" y="7"/>
      <point x="256" y="-1" type="curve"/>
      <point x="142" y="-70"/>
      <point x="84" y="-139"/>
      <point x="84" y="-254" type="curve" smooth="yes"/>
      <point x="84" y="-507"/>
      <point x="329" y="-602"/>
    </contour>
    <contour>
      <point x="582" y="-313" type="curve" smooth="yes"/>
      <point x="504" y="-313"/>
      <point x="372" y="-317"/>
      <point x="372" y="-200" type="curve" smooth="yes"/>
      <point x="372" y="-128"/>
      <point x="395" y="-114"/>
      <point x="418" y="-43" type="curve"/>
      <point x="512" y="-43"/>
      <point x="474" y="-42"/>
      <point x="549" y="-43" type="curve" smooth="yes"/>
      <point x="829" y="-43"/>
      <point x="928" y="-25"/>
      <point x="928" y="-137" type="curve" smooth="yes"/>
      <point x="928" y="-324"/>
      <point x="686" y="-313"/>
    </contour>
    <contour>
      <point x="619" y="601" type="curve"/>
      <point x="519" y="601"/>
      <point x="429" y="659"/>
      <point x="429" y="800" type="curve" smooth="yes"/>
      <point x="429" y="914"/>
      <point x="549" y="972"/>
      <point x="631" y="972" type="curve" smooth="yes"/>
      <point x="751" y="972"/>
      <point x="813" y="906"/>
      <point x="813" y="773" type="curve" smooth="yes"/>
      <point x="813" y="619"/>
      <point x="705" y="601"/>
    </contour>
  </outline>
</glyph>
<glyph name="h" format="1">
  <advance width="1394"/>
  <unicode hex="0068"/>
  <outline>
    <contour>
      <point x="151" y="0" type="line"/>
      <point x="563" y="0" type="line"/>
      <point x="563" y="882" type="line"/>
      <point x="530" y="847"/>
      <point x="570" y="929"/>
      <point x="715" y="929" type="curve" smooth="yes"/>
      <point x="763" y="929"/>
      <point x="856" y="886"/>
      <point x="856" y="755" type="curve" smooth="yes"/>
      <point x="856" y="0" type="line"/>
      <point x="1268" y="0" type="line"/>
      <point x="1268" y="721" type="line" smooth="yes"/>
      <point x="1268" y="1092"/>
      <point x="1022" y="1198"/>
      <point x="860" y="1198" type="curve" smooth="yes"/>
      <point x="739" y="1198"/>
      <point x="607" y="1152"/>
      <point x="563" y="1075" type="curve"/>
      <point x="563" y="1647" type="line"/>
      <point x="151" y="1578" type="line"/>
    </contour>
  </outline>
</glyph>
<glyph name="i" format="1">
  <advance width="758"/>
  <unicode hex="0069"/>
  <outline>
    <contour>
      <point x="169" y="0" type="line"/>
      <point x="586" y="0" type="line"/>
      <point x="586" y="1162" type="line"/>
      <point x="169" y="1162" type="line"/>
    </contour>
    <contour>
      <point x="376" y="1335" type="curve" smooth="yes"/>
      <point x="503" y="1335"/>
      <point x="607" y="1431"/>
      <point x="607" y="1559" type="curve" smooth="yes"/>
      <point x="607" y="1686"/>
      <point x="501" y="1784"/>
      <point x="376" y="1784" type="curve" smooth="yes"/>
      <point x="250" y="1784"/>
      <point x="152" y="1686"/>
      <point x="152" y="1559" type="curve" smooth="yes"/>
      <point x="152" y="1436"/>
      <point x="246" y="1335"/>
    </contour>
  </outline>
</glyph>
<glyph name="j" format="1">
  <advance width="782"/>
  <unicode hex="006A"/>
  <outline>
    <contour>
      <point x="133" y="-379" type="line"/>
      <point x="378" y="-323"/>
      <point x="628" y="-133"/>
      <point x="628" y="182" type="curve" smooth="yes"/>
      <point x="628" y="1162" type="line"/>
      <point x="214" y="1162" type="line"/>
      <point x="214" y="201" type="line" smooth="yes"/>
      <point x="214" y="19"/>
      <point x="113" y="-36"/>
      <point x="-3" y="-97" type="curve"/>
    </contour>
    <contour>
      <point x="419" y="1335" type="curve" smooth="yes"/>
      <point x="548" y="1335"/>
      <point x="640" y="1432"/>
      <point x="640" y="1559" type="curve" smooth="yes"/>
      <point x="640" y="1686"/>
      <point x="547" y="1784"/>
      <point x="419" y="1784" type="curve" smooth="yes"/>
      <point x="292" y="1784"/>
      <point x="200" y="1690"/>
      <point x="200" y="1559" type="curve" smooth="yes"/>
      <point x="200" y="1438"/>
      <point x="289" y="1335"/>
    </contour>
  </outline>
</glyph>
<glyph name="k" format="1">
  <advance width="1390"/>
  <unicode hex="006B"/>
  <outline>
    <contour>
      <point x="152" y="0" type="line"/>
      <point x="565" y="0" type="line"/>
      <point x="565" y="394" type="line"/>
      <point x="652" y="474" type="line"/>
      <point x="918" y="0" type="line"/>
      <point x="1395" y="0" type="line"/>
      <point x="913" y="668" type="line"/>
      <point x="1385" y="1162" type="line"/>
      <point x="914" y="1162" type="line"/>
      <point x="565" y="744" type="line"/>
      <point x="565" y="1647" type="line"/>
      <point x="152" y="1578" type="line"/>
    </contour>
  </outline>
</glyph>
<glyph name="m" format="1">
  <advance width="1945"/>
  <unicode hex="006D"/>
  <outline>
    <contour>
      <point x="143" y="0" type="line"/>
      <point x="556" y="0" type="line"/>
      <point x="556" y="813" type="line"/>
      <point x="607" y="887"/>
      <point x="634" y="926"/>
      <point x="699" y="926" type="curve" smooth="yes"/>
      <point x="742" y="926"/>
      <point x="784" y="915"/>
      <point x="784" y="801" type="curve" smooth="yes"/>
      <point x="784" y="0" type="line"/>
      <point x="1198" y="0" type="line"/>
      <point x="1198" y="864" type="line"/>
      <point x="1262" y="924"/>
      <point x="1283" y="926"/>
      <point x="1315" y="926" type="curve" smooth="yes"/>
      <point x="1359" y="926"/>
      <point x="1405" y="897"/>
      <point x="1405" y="787" type="curve" smooth="yes"/>
      <point x="1405" y="0" type="line"/>
      <point x="1819" y="0" type="line"/>
      <point x="1819" y="751" type="line" smooth="yes"/>
      <point x="1819" y="1053"/>
      <point x="1691" y="1198"/>
      <point x="1456" y="1198" type="curve" smooth="yes"/>
      <point x="1354" y="1198"/>
      <point x="1244" y="1161"/>
      <point x="1126" y="1043" type="curve"/>
      <point x="1057" y="1166"/>
      <point x="984" y="1198"/>
      <point x="836" y="1198" type="curve" smooth="yes"/>
      <point x="742" y="1198"/>
      <point x="625" y="1127"/>
      <point x="518" y="982" type="curve"/>
      <point x="418" y="1162" type="line"/>
      <point x="143" y="1162" type="line"/>
    </contour>
  </outline>
</glyph>
<glyph name="n" format="1">
  <advance width="1350"/>
  <unicode hex="006E"/>
  <outline>
    <contour>
      <point x="143" y="0" type="line"/>
      <point x="556" y="0" type="line"/>
      <point x="556" y="847" type="line"/>
      <point x="558" y="862"/>
      <point x="617" y="928"/>
      <point x="704" y="928" type="curve" smooth="yes"/>
      <point x="780" y="928"/>
      <point x="810" y="919"/>
      <point x="810" y="755" type="curve" smooth="yes"/>
      <point x="810" y="0" type="line"/>
      <point x="1224" y="0" type="line"/>
      <point x="1224" y="731" type="line" smooth="yes"/>
      <point x="1224" y="1118"/>
      <point x="998" y="1199"/>
      <point x="851" y="1199" type="curve" smooth="yes"/>
      <point x="698" y="1199"/>
      <point x="566" y="1089"/>
      <point x="513" y="1029" type="curve"/>
      <point x="458" y="1162" type="line"/>
      <point x="143" y="1162" type="line"/>
    </contour>
  </outline>
</glyph>
<glyph name="o" format="1">
  <advance width="1302"/>
  <unicode hex="006F"/>
  <outline>
    <contour>
      <point x="653" y="243" type="curve" smooth="yes"/>
      <point x="487" y="243"/>
      <point x="477" y="450"/>
      <point x="477" y="585" type="curve" smooth="yes"/>
      <point x="477" y="854"/>
      <point x="550" y="925"/>
      <point x="653" y="925" type="curve" smooth="yes"/>
      <point x="756" y="925"/>
      <point x="829" y="854"/>
      <point x="829" y="585" type="curve" smooth="yes"/>
      <point x="829" y="316"/>
      <point x="755" y="243"/>
    </contour>
    <contour>
      <point x="653" y="-28" type="curve" smooth="yes"/>
      <point x="1023" y="-28"/>
      <point x="1241" y="180"/>
      <point x="1241" y="582" type="curve" smooth="yes"/>
      <point x="1241" y="991"/>
      <point x="1014" y="1198"/>
      <point x="651" y="1198" type="curve" smooth="yes"/>
      <point x="287" y="1198"/>
      <point x="62" y="992"/>
      <point x="62" y="582" type="curve" smooth="yes"/>
      <point x="62" y="180"/>
      <point x="283" y="-28"/>
    </contour>
  </outline>
</glyph>
<glyph name="p" format="1">
  <advance width="1371"/>
  <unicode hex="0070"/>
  <outline>
    <contour>
      <point x="143" y="-375" type="line"/>
      <point x="556" y="-383" type="line"/>
      <point x="556" y="75" type="line"/>
      <point x="644" y="9"/>
      <point x="724" y="-31"/>
      <point x="834" y="-31" type="curve" smooth="yes"/>
      <point x="1010" y="-31"/>
      <point x="1307" y="98"/>
      <point x="1307" y="562" type="curve" smooth="yes"/>
      <point x="1307" y="1111"/>
      <point x="1026" y="1198"/>
      <point x="869" y="1198" type="curve" smooth="yes"/>
      <point x="703" y="1198"/>
      <point x="603" y="1107"/>
      <point x="508" y="1024" type="curve"/>
      <point x="429" y="1162" type="line"/>
      <point x="143" y="1162" type="line"/>
    </contour>
    <contour>
      <point x="751" y="240" type="curve" smooth="yes"/>
      <point x="710" y="240"/>
      <point x="668" y="253"/>
      <point x="556" y="331" type="curve"/>
      <point x="556" y="844" type="line"/>
      <point x="622" y="911"/>
      <point x="667" y="932"/>
      <point x="742" y="932" type="curve" smooth="yes"/>
      <point x="878" y="932"/>
      <point x="894" y="778"/>
      <point x="894" y="614" type="curve" smooth="yes"/>
      <point x="894" y="334"/>
      <point x="847" y="240"/>
    </contour>
  </outline>
</glyph>
<glyph name="r" format="1">
  <advance width="923"/>
  <unicode hex="0072"/>
  <outline>
    <contour>
      <point x="142" y="0" type="line"/>
      <point x="555" y="0" type="line"/>
      <point x="555" y="764" type="line"/>
      <point x="630" y="815"/>
      <point x="930" y="836"/>
      <point x="932" y="836" type="curve"/>
      <point x="890" y="1158" type="line"/>
      <point x="792" y="1158"/>
      <point x="602" y="1152"/>
      <point x="548" y="981" type="curve"/>
      <point x="504" y="1162" type="line"/>
      <point x="142" y="1162" type="line"/>
    </contour>
  </outline>
</glyph>
<glyph name="s" format="1">
  <advance width="1116"/>
  <unicode hex="0073"/>
  <outline>
    <contour>
      <point x="552" y="-28" type="curve" smooth="yes"/>
      <point x="783" y="-28"/>
      <point x="1041" y="71"/>
      <point x="1041" y="358" type="curve" smooth="yes"/>
      <point x="1041" y="509"/>
      <point x="992" y="583"/>
      <point x="729" y="694" type="curve" smooth="yes"/>
      <point x="747" y="688"/>
      <point x="484" y="798"/>
      <point x="501" y="792" type="curve" smooth="yes"/>
      <point x="450" y="815"/>
      <point x="453" y="817"/>
      <point x="453" y="849" type="curve" smooth="yes"/>
      <point x="452" y="891"/>
      <point x="455" y="921"/>
      <point x="588" y="921" type="curve" smooth="yes"/>
      <point x="662" y="921"/>
      <point x="852" y="879"/>
      <point x="957" y="850" type="curve"/>
      <point x="1031" y="1114" type="line"/>
      <point x="943" y="1137"/>
      <point x="735" y="1198"/>
      <point x="580" y="1198" type="curve" smooth="yes"/>
      <point x="251" y="1198"/>
      <point x="81" y="1055"/>
      <point x="81" y="859" type="curve" smooth="yes"/>
      <point x="81" y="640"/>
      <point x="165" y="587"/>
      <point x="355" y="505" type="curve" smooth="yes"/>
      <point x="337" y="511"/>
      <point x="604" y="399"/>
      <point x="586" y="405" type="curve" smooth="yes"/>
      <point x="642" y="378"/>
      <point x="654" y="360"/>
      <point x="654" y="327" type="curve" smooth="yes"/>
      <point x="654" y="275"/>
      <point x="616" y="256"/>
      <point x="534" y="256" type="curve" smooth="yes"/>
      <point x="433" y="256"/>
      <point x="245" y="297"/>
      <point x="149" y="334" type="curve"/>
      <point x="79" y="70" type="line"/>
      <point x="206" y="0"/>
      <point x="342" y="-28"/>
    </contour>
  </outline>
</glyph>
<glyph name="t" format="1">
  <advance width="939"/>
  <unicode hex="0074"/>
  <outline>
    <contour>
      <point x="587" y="-15" type="curve" smooth="yes"/>
      <point x="733" y="-15"/>
      <point x="867" y="19"/>
      <point x="940" y="66" type="curve"/>
      <point x="867" y="323" type="line"/>
      <point x="811" y="302"/>
      <point x="755" y="286"/>
      <point x="700" y="286" type="curve" smooth="yes"/>
      <point x="645" y="286"/>
      <point x="588" y="307"/>
      <point x="588" y="431" type="curve" smooth="yes"/>
      <point x="588" y="980" type="line"/>
      <point x="902" y="980" type="line"/>
      <point x="902" y="1162" type="line"/>
      <point x="588" y="1162" type="line"/>
      <point x="588" y="1612" type="line"/>
      <point x="179" y="1524" type="line"/>
      <point x="188" y="1162" type="line"/>
      <point x="-15" y="1162" type="line"/>
      <point x="-15" y="980" type="line"/>
      <point x="177" y="980" type="line"/>
      <point x="177" y="476" type="line" smooth="yes"/>
      <point x="177" y="70"/>
      <point x="396" y="-15"/>
    </contour>
  </outline>
</glyph>
<glyph name="u" format="1">
  <advance width="1348"/>
  <unicode hex="0075"/>
  <outline>
    <contour>
      <point x="478" y="-31" type="curve" smooth="yes"/>
      <point x="598" y="-32"/>
      <point x="744" y="26"/>
      <point x="807" y="146" type="curve"/>
      <point x="891" y="0" type="line"/>
      <point x="1206" y="0" type="line"/>
      <point x="1206" y="1162" type="line"/>
      <point x="792" y="1162" type="line"/>
      <point x="792" y="316" type="line"/>
      <point x="786" y="286"/>
      <point x="702" y="235"/>
      <point x="645" y="235" type="curve" smooth="yes"/>
      <point x="615" y="235"/>
      <point x="540" y="240"/>
      <point x="540" y="382" type="curve" smooth="yes"/>
      <point x="540" y="1162" type="line"/>
      <point x="126" y="1162" type="line"/>
      <point x="126" y="452" type="line" smooth="yes"/>
      <point x="126" y="78"/>
      <point x="333" y="-31"/>
    </contour>
  </outline>
</glyph>
<glyph name="v" format="1">
  <advance width="1267"/>
  <unicode hex="0076"/>
  <outline>
    <contour>
      <point x="375" y="0" type="line"/>
      <point x="893" y="0" type="line"/>
      <point x="1250" y="1162" type="line"/>
      <point x="806" y="1162" type="line"/>
      <point x="632" y="354" type="line"/>
      <point x="456" y="1162" type="line"/>
      <point x="17" y="1162" type="line"/>
    </contour>
  </outline>
</glyph>
<glyph name="w" format="1">
  <advance width="1657"/>
  <unicode hex="0077"/>
  <outline>
    <contour>
      <point x="318" y="0" type="line"/>
      <point x="727" y="0" type="line"/>
      <point x="827" y="585" type="line"/>
      <point x="932" y="0" type="line"/>
      <point x="1346" y="0" type="line"/>
      <point x="1627" y="1162" type="line"/>
      <point x="1253" y="1162" type="line"/>
      <point x="1118" y="434" type="line"/>
      <point x="1007" y="1162" type="line"/>
      <point x="660" y="1162" type="line"/>
      <point x="544" y="444" type="line"/>
      <point x="414" y="1162" type="line"/>
      <point x="31" y="1162" type="line"/>
    </contour>
  </outline>
</glyph>
<glyph name="x" format="1">
  <advance width="1251"/>
  <unicode hex="0078"/>
  <outline>
    <contour>
      <point x="20" y="0" type="line"/>
      <point x="482" y="0" type="line"/>
      <point x="626" y="299" type="line"/>
      <point x="779" y="0" type="line"/>
      <point x="1235" y="0" type="line"/>
      <point x="844" y="584" type="line"/>
      <point x="1240" y="1162" type="line"/>
      <point x="776" y="1162" type="line"/>
      <point x="634" y="880" type="line"/>
      <point x="484" y="1162" type="line"/>
      <point x="11" y="1162" type="line"/>
      <point x="418" y="584" type="line"/>
    </contour>
  </outline>
</glyph>
<glyph name="y" format="1">
  <advance width="1273"/>
  <unicode hex="0079"/>
  <outline>
    <contour>
      <point x="263" y="-479" type="line"/>
      <point x="565" y="-476"/>
      <point x="764" y="-353"/>
      <point x="866" y="-30" type="curve"/>
      <point x="1246" y="1162" type="line"/>
      <point x="830" y="1162" type="line"/>
      <point x="681" y="434" type="line"/>
      <point x="435" y="1162" type="line"/>
      <point x="9" y="1162" type="line"/>
      <point x="503" y="51" type="line"/>
      <point x="459" y="-125"/>
      <point x="405" y="-183"/>
      <point x="145" y="-204" type="curve"/>
    </contour>
  </outline>
</glyph>
<glyph name="z" format="1">
  <advance width="1030"/>
  <unicode hex="007A"/>
  <outline>
    <contour>
      <point x="65" y="0" type="line"/>
      <point x="959" y="0" type="line"/>
      <point x="959" y="310" type="line"/>
      <point x="528" y="310" type="line"/>
      <point x="944" y="906" type="line"/>
      <point x="944" y="1162" type="line"/>
      <point x="70" y="1162" type="line"/>
      <point x="70" y="849" type="line"/>
      <point x="486" y="849" type="line"/>
      <point x="65" y="259" type="line"/>
    </contour>
  </outline>
</glyph>
<glyph name="asciitilde" format="1">
  <advance width="1299"/>
  <unicode hex="007E"/>
  <outline>
    <contour>
      <point x="889" y="279" type="curve" smooth="yes"/>
      <point x="1035" y="279"/>
      <point x="1136" y="409"/>
      <point x="1136" y="633" type="curve"/>
      <point x="904" y="633" type="line"/>
      <point x="904" y="550"/>
      <point x="890" y="545"/>
      <point x="849" y="545" type="curve" smooth="yes"/>
      <point x="762" y="545"/>
      <point x="618" y="678"/>
      <point x="445" y="682" type="curve"/>
      <point x="294" y="682"/>
      <point x="204" y="567"/>
      <point x="204" y="314" type="curve"/>
      <point x="432" y="314" type="line"/>
      <point x="432" y="406"/>
      <point x="456" y="426"/>
      <point x="485" y="426" type="curve" smooth="yes"/>
      <point x="585" y="426"/>
      <point x="732" y="279"/>
    </contour>
  </outline>
</glyph>
<glyph name="sterling" format="1">
  <advance width="1278"/>
  <unicode hex="00A3"/>
  <outline>
    <contour>
      <point x="220" y="0" type="line"/>
      <point x="1120" y="0" type="line"/>
      <point x="1120" y="318" type="line"/>
      <point x="538" y="318" type="line"/>
      <point x="509" y="275"/>
      <point x="695" y="300"/>
      <point x="695" y="560" type="curve"/>
      <point x="1066" y="560" type="line"/>
      <point x="1066" y="725" type="line"/>
      <point x="670" y="725" type="line"/>
      <point x="635" y="771"/>
      <point x="604" y="829"/>
      <point x="604" y="890" type="curve" smooth="yes"/>
      <point x="604" y="917"/>
      <point x="582" y="1015"/>
      <point x="753" y="1015" type="curve" smooth="yes"/>
      <point x="903" y="1015"/>
      <point x="981" y="950"/>
      <point x="990" y="926" type="curve"/>
      <point x="1155" y="1177" type="line"/>
      <point x="1143" y="1193"/>
      <point x="1027" y="1322"/>
      <point x="717" y="1322" type="curve" smooth="yes"/>
      <point x="381" y="1322"/>
      <point x="228" y="1167"/>
      <point x="228" y="956" type="curve" smooth="yes"/>
      <point x="228" y="790"/>
      <point x="357" y="699"/>
      <point x="338" y="718" type="curve" smooth="yes"/>
      <point x="262" y="718" type="line"/>
      <point x="262" y="560" type="line"/>
      <point x="362" y="561" type="line"/>
      <point x="362" y="427"/>
      <point x="182" y="269"/>
      <point x="220" y="312" type="curve"/>
    </contour>
  </outline>
</glyph>
<glyph name="currency" format="1">
  <advance width="1480"/>
  <unicode hex="00A4"/>
  <outline>
    <contour>
      <point x="312" y="399" type="line"/>
      <point x="512" y="598" type="line"/>
      <point x="582" y="556"/>
      <point x="657" y="534"/>
      <point x="739" y="534" type="curve" smooth="yes"/>
      <point x="831" y="534"/>
      <point x="914" y="560"/>
      <point x="993" y="614" type="curve"/>
      <point x="1207" y="399" type="line"/>
      <point x="1338" y="531" type="line"/>
      <point x="1125" y="745" type="line"/>
      <point x="1180" y="823"/>
      <point x="1205" y="909"/>
      <point x="1205" y="1001" type="curve" smooth="yes"/>
      <point x="1205" y="1084"/>
      <point x="1184" y="1158"/>
      <point x="1140" y="1227" type="curve"/>
      <point x="1338" y="1426" type="line"/>
      <point x="1207" y="1558" type="line"/>
      <point x="1012" y="1362" type="line"/>
      <point x="939" y="1410"/>
      <point x="861" y="1433"/>
      <point x="774" y="1433" type="curve" smooth="yes"/>
      <point x="682" y="1433"/>
      <point x="596" y="1407"/>
      <point x="517" y="1352" type="curve"/>
      <point x="312" y="1558" type="line"/>
      <point x="181" y="1426" type="line"/>
      <point x="386" y="1220" type="line"/>
      <point x="333" y="1141"/>
      <point x="307" y="1059"/>
      <point x="307" y="967" type="curve" smooth="yes"/>
      <point x="307" y="880"/>
      <point x="330" y="801"/>
      <point x="378" y="728" type="curve"/>
      <point x="181" y="531" type="line"/>
    </contour>
    <contour>
      <point x="758" y="723" type="curve" smooth="yes"/>
      <point x="576" y="723"/>
      <point x="511" y="848"/>
      <point x="511" y="972" type="curve" smooth="yes"/>
      <point x="511" y="1101"/>
      <point x="584" y="1242"/>
      <point x="766" y="1242" type="curve" smooth="yes"/>
      <point x="940" y="1242"/>
      <point x="1002" y="1116"/>
      <point x="1002" y="992" type="curve" smooth="yes"/>
      <point x="1002" y="862"/>
      <point x="934" y="723"/>
    </contour>
  </outline>
</glyph>
<glyph name="dieresis" format="1">
  <advance width="1411"/>
  <unicode hex="00A8"/>
  <outline>
    <contour>
      <point x="337" y="1620" type="curve" smooth="yes"/>
      <point x="463" y="1620"/>
      <point x="567" y="1716"/>
      <point x="567" y="1844" type="curve" smooth="yes"/>
      <point x="567" y="1972"/>
      <point x="461" y="2069"/>
      <point x="337" y="2069" type="curve" smooth="yes"/>
      <point x="210" y="2069"/>
      <point x="112" y="1972"/>
      <point x="112" y="1844" type="curve" smooth="yes"/>
      <point x="112" y="1722"/>
      <point x="206" y="1620"/>
    </contour>
    <contour>
      <point x="1076" y="1620" type="curve" smooth="yes"/>
      <point x="1202" y="1620"/>
      <point x="1306" y="1716"/>
      <point x="1306" y="1844" type="curve" smooth="yes"/>
      <point x="1306" y="1972"/>
      <point x="1201" y="2069"/>
      <point x="1076" y="2069" type="curve" smooth="yes"/>
      <point x="950" y="2069"/>
      <point x="852" y="1972"/>
      <point x="852" y="1844" type="curve" smooth="yes"/>
      <point x="852" y="1722"/>
      <point x="946" y="1620"/>
    </contour>
  </outline>
</glyph>
<glyph name="logicalnot" format="1">
  <advance width="1005"/>
  <unicode hex="00AC"/>
  <outline>
    <contour>
      <point x="746" y="180" type="line"/>
      <point x="944" y="180" type="line"/>
      <point x="944" y="719" type="line"/>
      <point x="87" y="719" type="line"/>
      <point x="87" y="414" type="line"/>
      <point x="746" y="414" type="line"/>
    </contour>
  </outline>
</glyph>
<glyph name="acute" format="1">
  <advance width="1355"/>
  <unicode hex="00B4"/>
  <outline>
    <contour>
      <point x="709" y="1674" type="line"/>
      <point x="1045" y="2259" type="line"/>
      <point x="675" y="2421" type="line"/>
      <point x="513" y="1766" type="line"/>
    </contour>
  </outline>
</glyph>
<glyph name="periodcentered" format="1">
  <advance width="665"/>
  <unicode hex="00B7"/>
  <outline>
    <contour>
      <point x="337" y="678" type="curve" smooth="yes"/>
      <point x="463" y="678"/>
      <point x="567" y="774"/>
      <point x="567" y="902" type="curve" smooth="yes"/>
      <point x="567" y="1030"/>
      <point x="461" y="1127"/>
      <point x="337" y="1127" type="curve" smooth="yes"/>
      <point x="210" y="1127"/>
      <point x="112" y="1030"/>
      <point x="112" y="902" type="curve" smooth="yes"/>
      <point x="112" y="780"/>
      <point x="206" y="678"/>
    </contour>
  </outline>
</glyph>
<glyph name="guillemotright" format="1">
  <advance width="2123"/>
  <unicode hex="00BB"/>
  <outline>
    <contour>
      <point x="213" y="-109" type="line"/>
      <point x="1095" y="442" type="line"/>
      <point x="1095" y="708" type="line"/>
      <point x="213" y="1258" type="line"/>
      <point x="213" y="870" type="line"/>
      <point x="707" y="580" type="line"/>
      <point x="213" y="277" type="line"/>
    </contour>
    <contour>
      <point x="1093" y="-109" type="line"/>
      <point x="1976" y="442" type="line"/>
      <point x="1976" y="708" type="line"/>
      <point x="1093" y="1258" type="line"/>
      <point x="1093" y="870" type="line"/>
      <point x="1587" y="580" type="line"/>
      <point x="1093" y="277" type="line"/>
    </contour>
  </outline>
</glyph>
<glyph name="threequarters" format="1">
  <advance width="2269"/>
  <unicode hex="00BE"/>
  <outline>
    <contour>
      <point x="427" y="358" type="curve"/>
      <point x="685" y="358"/>
      <point x="850" y="463"/>
      <point x="850" y="705" type="curve" smooth="yes"/>
      <point x="850" y="791"/>
      <point x="780" y="903"/>
      <point x="694" y="927" type="curve"/>
      <point x="780" y="963"/>
      <point x="823" y="1051"/>
      <point x="823" y="1136" type="curve"/>
      <point x="817" y="1369"/>
      <point x="669" y="1447"/>
      <point x="412" y="1447" type="curve" smooth="yes"/>
      <point x="247" y="1447"/>
      <point x="145" y="1382"/>
      <point x="108" y="1359" type="curve"/>
      <point x="216" y="1154" type="line"/>
      <point x="263" y="1170"/>
      <point x="369" y="1209"/>
      <point x="441" y="1209" type="curve" smooth="yes"/>
      <point x="509" y="1209"/>
      <point x="538" y="1181"/>
      <point x="538" y="1147" type="curve"/>
      <point x="535" y="1065"/>
      <point x="443" y="1039"/>
      <point x="328" y="1039" type="curve"/>
      <point x="328" y="818" type="line"/>
      <point x="445" y="824"/>
      <point x="555" y="774"/>
      <point x="555" y="693" type="curve" smooth="yes"/>
      <point x="555" y="616"/>
      <point x="522" y="593"/>
      <point x="414" y="593" type="curve" smooth="yes"/>
      <point x="302" y="593"/>
      <point x="184" y="648"/>
      <point x="211" y="634" type="curve"/>
      <point x="139" y="403" type="line"/>
      <point x="213" y="377"/>
      <point x="275" y="356"/>
    </contour>
    <contour>
      <point x="1744" y="-77" type="line"/>
      <point x="1999" y="-85" type="line"/>
      <point x="1999" y="120" type="line"/>
      <point x="2133" y="120" type="line"/>
      <point x="2133" y="364" type="line"/>
      <point x="1999" y="364" type="line"/>
      <point x="1999" y="991" type="line"/>
      <point x="1761" y="1053" type="line"/>
      <point x="1260" y="301" type="line"/>
      <point x="1297" y="120" type="line"/>
      <point x="1744" y="120" type="line"/>
    </contour>
    <contour>
      <point x="969" y="-126" type="line"/>
      <point x="1560" y="1530" type="line"/>
      <point x="1296" y="1609" type="line"/>
      <point x="717" y="-29" type="line"/>
    </contour>
    <contour>
      <point x="1581" y="362" type="line"/>
      <point x="1529" y="292"/>
      <point x="1789" y="714"/>
      <point x="1744" y="639" type="curve"/>
      <point x="1744" y="362" type="line"/>
    </contour>
  </outline>
</glyph>
<glyph name="Eth" format="1">
  <advance width="1488"/>
  <unicode hex="00D0"/>
  <outline>
    <contour>
      <point x="563" y="297" type="line"/>
      <point x="563" y="653" type="line"/>
      <point x="837" y="653" type="line"/>
      <point x="837" y="924" type="line"/>
      <point x="563" y="924" type="line"/>
      <point x="563" y="1283" type="line"/>
      <point x="552" y="1283" type="line" smooth="yes"/>
      <point x="996" y="1283"/>
      <point x="1036" y="1111"/>
      <point x="1036" y="782" type="curve" smooth="yes"/>
      <point x="1036" y="455"/>
      <point x="982" y="297"/>
      <point x="552" y="297" type="curve" smooth="yes"/>
    </contour>
    <contour>
      <point x="126" y="0" type="line"/>
      <point x="606" y="0" type="line" smooth="yes"/>
      <point x="1184" y="0"/>
      <point x="1471" y="259"/>
      <point x="1471" y="780" type="curve" smooth="yes"/>
      <point x="1471" y="1345"/>
      <point x="1163" y="1578"/>
      <point x="606" y="1578" type="curve" smooth="yes"/>
      <point x="126" y="1578" type="line"/>
      <point x="126" y="924" type="line"/>
      <point x="-32" y="924" type="line"/>
      <point x="-32" y="653" type="line"/>
      <point x="126" y="653" type="line"/>
    </contour>
  </outline>
</glyph>
<glyph name="eth" format="1">
  <advance width="1313"/>
  <unicode hex="00F0"/>
  <outline>
    <contour>
      <point x="611" y="-14" type="curve" smooth="yes"/>
      <point x="956" y="-14"/>
      <point x="1236" y="112"/>
      <point x="1236" y="582" type="curve" smooth="yes"/>
      <point x="1236" y="999"/>
      <point x="1115" y="1250"/>
      <point x="974" y="1423" type="curve"/>
      <point x="1173" y="1491" type="line"/>
      <point x="1131" y="1664" type="line"/>
      <point x="834" y="1565" type="line"/>
      <point x="870" y="1530"/>
      <point x="664" y="1687"/>
      <point x="566" y="1755" type="curve"/>
      <point x="390" y="1549" type="line"/>
      <point x="427" y="1530"/>
      <point x="471" y="1502"/>
      <point x="518" y="1462" type="curve"/>
      <point x="386" y="1418" type="line"/>
      <point x="428" y="1244" type="line"/>
      <point x="662" y="1322" type="line"/>
      <point x="759" y="1217"/>
      <point x="824" y="1101"/>
      <point x="824" y="1053" type="curve"/>
      <point x="761" y="1143"/>
      <point x="679" y="1184"/>
      <point x="536" y="1184" type="curve" smooth="yes"/>
      <point x="281" y="1184"/>
      <point x="95" y="971"/>
      <point x="95" y="603" type="curve" smooth="yes"/>
      <point x="95" y="257"/>
      <point x="239" y="-14"/>
    </contour>
    <contour>
      <point x="675" y="258" type="curve" smooth="yes"/>
      <point x="555" y="258"/>
      <point x="510" y="406"/>
      <point x="510" y="586" type="curve" smooth="yes"/>
      <point x="510" y="732"/>
      <point x="509" y="915"/>
      <point x="622" y="915" type="curve" smooth="yes"/>
      <point x="663" y="915"/>
      <point x="821" y="433"/>
      <point x="821" y="512" type="curve" smooth="yes"/>
      <point x="821" y="380"/>
      <point x="762" y="258"/>
    </contour>
  </outline>
</glyph>
<glyph name="hbar" format="1">
  <advance width="1387"/>
  <unicode hex="0127"/>
  <outline>
    <contour>
      <point x="142" y="0" type="line"/>
      <point x="554" y="0" type="line"/>
      <point x="554" y="882" type="line"/>
      <point x="521" y="847"/>
      <point x="561" y="929"/>
      <point x="706" y="929" type="curve" smooth="yes"/>
      <point x="754" y="929"/>
      <point x="844" y="886"/>
      <point x="844" y="755" type="curve" smooth="yes"/>
      <point x="844" y="0" type="line"/>
      <point x="1256" y="0" type="line"/>
      <point x="1256" y="721" type="line" smooth="yes"/>
      <point x="1256" y="1092"/>
      <point x="1013" y="1198"/>
      <point x="852" y="1198" type="curve" smooth="yes"/>
      <point x="730" y="1198"/>
      <point x="598" y="1152"/>
      <point x="554" y="1075" type="curve"/>
      <point x="554" y="1275" type="line"/>
      <point x="836" y="1275" type="line"/>
      <point x="836" y="1455" type="line"/>
      <point x="554" y="1455" type="line"/>
      <point x="554" y="1647" type="line"/>
      <point x="142" y="1578" type="line"/>
      <point x="142" y="1455" type="line"/>
      <point x="-1" y="1455" type="line"/>
      <point x="-1" y="1275" type="line"/>
      <point x="142" y="1275" type="line"/>
    </contour>
  </outline>
</glyph>
<glyph name="florin" format="1">
  <advance width="1427"/>
  <unicode hex="0192"/>
  <outline>
    <contour>
      <point x="416" y="-559" type="curve" smooth="yes"/>
      <point x="671" y="-559"/>
      <point x="860" y="-405"/>
      <point x="892" y="-81" type="curve" smooth="yes"/>
      <point x="1000" y="992" type="line"/>
      <point x="1255" y="992" type="line"/>
      <point x="1274" y="1174" type="line"/>
      <point x="1021" y="1174" type="line"/>
      <point x="1040" y="1358"/>
      <point x="1124" y="1359"/>
      <point x="1166" y="1359" type="curve" smooth="yes"/>
      <point x="1220" y="1359"/>
      <point x="1267" y="1362"/>
      <point x="1312" y="1353" type="curve"/>
      <point x="1320" y="1659" type="line"/>
      <point x="1239" y="1665"/>
      <point x="1171" y="1663"/>
      <point x="1097" y="1663" type="curve" smooth="yes"/>
      <point x="830" y="1663"/>
      <point x="644" y="1521"/>
      <point x="607" y="1174" type="curve"/>
      <point x="419" y="1174" type="line"/>
      <point x="400" y="992" type="line"/>
      <point x="588" y="992" type="line"/>
      <point x="481" y="-53" type="line"/>
      <point x="464" y="-219"/>
      <point x="398" y="-261"/>
      <point x="331" y="-261" type="curve" smooth="yes"/>
      <point x="270" y="-261"/>
      <point x="223" y="-255"/>
      <point x="188" y="-245" type="curve"/>
      <point x="180" y="-551" type="line"/>
      <point x="264" y="-559"/>
      <point x="338" y="-559"/>
    </contour>
  </outline>
</glyph>
<glyph name="uni0237" format="1">
  <advance width="778"/>
  <unicode hex="0237"/>
  <outline>
    <contour>
      <point x="87" y="-338" type="line"/>
      <point x="332" y="-283"/>
      <point x="582" y="-93"/>
      <point x="582" y="222" type="curve" smooth="yes"/>
      <point x="582" y="1157" type="line"/>
      <point x="169" y="1157" type="line"/>
      <point x="169" y="241" type="line" smooth="yes"/>
      <point x="169" y="60"/>
      <point x="67" y="4"/>
      <point x="-49" y="-57" type="curve"/>
    </contour>
  </outline>
</glyph>
<glyph name="caron" format="1">
  <advance width="1365"/>
  <unicode hex="02C7"/>
  <outline>
    <contour>
      <point x="525" y="1633" type="line"/>
      <point x="840" y="1633" type="line"/>
      <point x="1085" y="2316" type="line"/>
      <point x="750" y="2286" type="line"/>
      <point x="681" y="1903" type="line"/>
      <point x="611" y="2286" type="line"/>
      <point x="280" y="2316" type="line"/>
    </contour>
  </outline>
</glyph>
<glyph name="breve" format="1">
  <advance width="679"/>
  <unicode hex="02D8"/>
  <outline>
    <contour>
      <point x="352" y="1456" type="curve" smooth="yes"/>
      <point x="541" y="1456"/>
      <point x="736" y="1571"/>
      <point x="751" y="1827" type="curve"/>
      <point x="493" y="1827" type="line"/>
      <point x="491" y="1727"/>
      <point x="419" y="1679"/>
      <point x="353" y="1679" type="curve" smooth="yes"/>
      <point x="292" y="1679"/>
      <point x="222" y="1726"/>
      <point x="219" y="1827" type="curve"/>
      <point x="-38" y="1827" type="line"/>
      <point x="-23" y="1573"/>
      <point x="170" y="1456"/>
    </contour>
  </outline>
</glyph>
<glyph name="ogonek" format="1">
  <advance width="582"/>
  <unicode hex="02DB"/>
  <outline>
    <contour>
      <point x="325" y="-488" type="curve" smooth="yes"/>
      <point x="372" y="-488"/>
      <point x="423" y="-478"/>
      <point x="468" y="-450" type="curve"/>
      <point x="468" y="-277" type="line"/>
      <point x="451" y="-290"/>
      <point x="424" y="-296"/>
      <point x="382" y="-296" type="curve" smooth="yes"/>
      <point x="347" y="-296"/>
      <point x="293" y="-284"/>
      <point x="293" y="-221" type="curve" smooth="yes"/>
      <point x="293" y="-161"/>
      <point x="332" y="-84"/>
      <point x="404" y="-29" type="curve"/>
      <point x="256" y="-29" type="line"/>
      <point x="149" y="-89"/>
      <point x="97" y="-200"/>
      <point x="97" y="-288" type="curve" smooth="yes"/>
      <point x="97" y="-423"/>
      <point x="227" y="-488"/>
    </contour>
  </outline>
</glyph>
<glyph name="endash" format="1">
  <advance width="1143"/>
  <unicode hex="2013"/>
  <outline>
    <contour>
      <point x="169" y="581" type="line"/>
      <point x="955" y="581" type="line"/>
      <point x="955" y="889" type="line"/>
      <point x="169" y="889" type="line"/>
    </contour>
  </outline>
</glyph>
<glyph name="emdash" format="1">
  <advance width="2381"/>
  <unicode hex="2014"/>
  <outline>
    <contour>
      <point x="169" y="581" type="line"/>
      <point x="2194" y="581" type="line"/>
      <point x="2194" y="889" type="line"/>
      <point x="169" y="889" type="line"/>
    </contour>
  </outline>
</glyph>
<glyph name="quotesinglbase" format="1">
  <advance width="730"/>
  <unicode hex="201A"/>
  <outline>
    <contour>
      <point x="215" y="-328" type="line"/>
      <point x="391" y="-275"/>
      <point x="618" y="-217"/>
      <point x="618" y="56" type="curve" smooth="yes"/>
      <point x="618" y="462" type="line"/>
      <point x="147" y="462" type="line"/>
      <point x="147" y="0" type="line"/>
      <point x="344" y="0" type="line"/>
      <point x="343" y="-105"/>
      <point x="292" y="-154"/>
      <point x="148" y="-206" type="curve"/>
    </contour>
  </outline>
</glyph>
<glyph name="quotedblleft" format="1">
  <advance width="1278"/>
  <unicode hex="201C"/>
  <outline>
    <contour>
      <point x="90" y="776" type="line"/>
      <point x="562" y="776" type="line"/>
      <point x="562" y="1238" type="line"/>
      <point x="365" y="1238" type="line"/>
      <point x="366" y="1341"/>
      <point x="418" y="1390"/>
      <point x="561" y="1444" type="curve"/>
      <point x="494" y="1566" type="line"/>
      <point x="318" y="1513"/>
      <point x="90" y="1454"/>
      <point x="90" y="1182" type="curve" smooth="yes"/>
    </contour>
    <contour>
      <point x="675" y="776" type="line"/>
      <point x="1146" y="776" type="line"/>
      <point x="1146" y="1238" type="line"/>
      <point x="949" y="1238" type="line"/>
      <point x="950" y="1341"/>
      <point x="1002" y="1390"/>
      <point x="1145" y="1444" type="curve"/>
      <point x="1078" y="1566" type="line"/>
      <point x="902" y="1513"/>
      <point x="675" y="1454"/>
      <point x="675" y="1182" type="curve" smooth="yes"/>
    </contour>
  </outline>
</glyph>
<glyph name="quotedblright" format="1">
  <advance width="1045"/>
  <unicode hex="201D"/>
  <outline>
    <contour>
      <point x="102" y="787" type="line"/>
      <point x="287" y="842"/>
      <point x="506" y="904"/>
      <point x="506" y="1172" type="curve" smooth="yes"/>
      <point x="506" y="1578" type="line"/>
      <point x="35" y="1578" type="line"/>
      <point x="35" y="1115" type="line"/>
      <point x="231" y="1115" type="line"/>
      <point x="231" y="1011"/>
      <point x="179" y="962"/>
      <point x="36" y="909" type="curve"/>
    </contour>
    <contour>
      <point x="686" y="787" type="line"/>
      <point x="871" y="842"/>
      <point x="1090" y="904"/>
      <point x="1090" y="1172" type="curve" smooth="yes"/>
      <point x="1090" y="1578" type="line"/>
      <point x="619" y="1578" type="line"/>
      <point x="619" y="1115" type="line"/>
      <point x="815" y="1115" type="line"/>
      <point x="815" y="1011"/>
      <point x="763" y="962"/>
      <point x="620" y="909" type="curve"/>
    </contour>
  </outline>
</glyph>
<glyph name="quotedblbase" format="1">
  <advance width="1232"/>
  <unicode hex="201E"/>
  <outline>
    <contour>
      <point x="197" y="-321" type="line"/>
      <point x="373" y="-267"/>
      <point x="600" y="-209"/>
      <point x="600" y="64" type="curve" smooth="yes"/>
      <point x="600" y="470" type="line"/>
      <point x="129" y="470" type="line"/>
      <point x="129" y="7" type="line"/>
      <point x="326" y="7" type="line"/>
      <point x="325" y="-97"/>
      <point x="274" y="-146"/>
      <point x="130" y="-199" type="curve"/>
    </contour>
    <contour>
      <point x="781" y="-321" type="line"/>
      <point x="957" y="-267"/>
      <point x="1184" y="-209"/>
      <point x="1184" y="64" type="curve" smooth="yes"/>
      <point x="1184" y="470" type="line"/>
      <point x="713" y="470" type="line"/>
      <point x="713" y="7" type="line"/>
      <point x="910" y="7" type="line"/>
      <point x="909" y="-97"/>
      <point x="858" y="-146"/>
      <point x="714" y="-199" type="curve"/>
    </contour>
  </outline>
</glyph>
<glyph name="dagger" format="1">
  <advance width="1185"/>
  <unicode hex="2020"/>
  <outline>
    <contour>
      <point x="376" y="0" type="line"/>
      <point x="814" y="0" type="line"/>
      <point x="814" y="958" type="line"/>
      <point x="1245" y="958" type="line"/>
      <point x="1245" y="1275" type="line"/>
      <point x="814" y="1275" type="line"/>
      <point x="814" y="1708" type="line"/>
      <point x="376" y="1708" type="line"/>
      <point x="376" y="1275" type="line"/>
      <point x="-61" y="1275" type="line"/>
      <point x="-61" y="958" type="line"/>
      <point x="376" y="958" type="line"/>
    </contour>
  </outline>
</glyph>
<glyph name="guilsinglleft" format="1">
  <advance width="1433"/>
  <unicode hex="2039"/>
  <outline>
    <contour>
      <point x="1121" y="-90" type="line"/>
      <point x="1121" y="248" type="line"/>
      <point x="537" y="601" type="line"/>
      <point x="1120" y="956" type="line"/>
      <point x="1120" y="1293" type="line"/>
      <point x="190" y="730" type="line"/>
      <point x="190" y="474" type="line"/>
    </contour>
  </outline>
</glyph>
<glyph name="uni203E" format="1">
  <advance width="929"/>
  <unicode hex="203E"/>
  <outline>
    <contour>
      <point x="123" y="122" type="line"/>
      <point x="805" y="122" type="line"/>
      <point x="805" y="239" type="line"/>
      <point x="123" y="239" type="line"/>
    </contour>
  </outline>
</glyph>
<glyph name="uniFB01" format="1">
  <advance width="1645"/>
  <unicode hex="FB01"/>
  <outline>
    <contour>
      <point x="207" y="0" type="line"/>
      <point x="619" y="0" type="line"/>
      <point x="619" y="981" type="line"/>
      <point x="1056" y="981" type="line"/>
      <point x="1056" y="0" type="line"/>
      <point x="1472" y="0" type="line"/>
      <point x="1472" y="1162" type="line"/>
      <point x="621" y="1162" type="line"/>
      <point x="621" y="1351"/>
      <point x="704" y="1359"/>
      <point x="747" y="1359" type="curve" smooth="yes"/>
      <point x="800" y="1359"/>
      <point x="847" y="1362"/>
      <point x="893" y="1353" type="curve"/>
      <point x="869" y="1659" type="line"/>
      <point x="787" y="1665"/>
      <point x="719" y="1663"/>
      <point x="645" y="1663" type="curve" smooth="yes"/>
      <point x="378" y="1663"/>
      <point x="207" y="1515"/>
      <point x="207" y="1162" type="curve"/>
      <point x="19" y="1162" type="line"/>
      <point x="19" y="981" type="line"/>
      <point x="207" y="981" type="line"/>
    </contour>
    <contour>
      <point x="1263" y="1335" type="curve" smooth="yes"/>
      <point x="1389" y="1335"/>
      <point x="1493" y="1431"/>
      <point x="1493" y="1559" type="curve" smooth="yes"/>
      <point x="1493" y="1686"/>
      <point x="1388" y="1784"/>
      <point x="1263" y="1784" type="curve" smooth="yes"/>
      <point x="1136" y="1784"/>
      <point x="1039" y="1686"/>
      <point x="1039" y="1559" type="curve" smooth="yes"/>
      <point x="1039" y="1436"/>
      <point x="1133" y="1335"/>
    </contour>
  </outline>
</glyph>
<glyph name="ffi" format="1">
  <advance width="2454"/>
  <outline>
    <contour>
      <point x="207" y="0" type="line"/>
      <point x="619" y="0" type="line"/>
      <point x="619" y="981" type="line"/>
      <point x="1037" y="981" type="line"/>
      <point x="1037" y="0" type="line"/>
      <point x="1449" y="0" type="line"/>
      <point x="1449" y="981" type="line"/>
      <point x="1865" y="981" type="line"/>
      <point x="1865" y="0" type="line"/>
      <point x="2282" y="0" type="line"/>
      <point x="2282" y="1162" type="line"/>
      <point x="1450" y="1162" type="line"/>
      <point x="1450" y="1351"/>
      <point x="1534" y="1359"/>
      <point x="1577" y="1359" type="curve" smooth="yes"/>
      <point x="1630" y="1359"/>
      <point x="1677" y="1362"/>
      <point x="1723" y="1353" type="curve"/>
      <point x="1699" y="1659" type="line"/>
      <point x="1617" y="1665"/>
      <point x="1549" y="1663"/>
      <point x="1475" y="1663" type="curve" smooth="yes"/>
      <point x="1208" y="1663"/>
      <point x="1037" y="1515"/>
      <point x="1037" y="1162" type="curve"/>
      <point x="621" y="1162" type="line"/>
      <point x="621" y="1351"/>
      <point x="704" y="1359"/>
      <point x="747" y="1359" type="curve" smooth="yes"/>
      <point x="800" y="1359"/>
      <point x="847" y="1362"/>
      <point x="893" y="1353" type="curve"/>
      <point x="869" y="1659" type="line"/>
      <point x="787" y="1665"/>
      <point x="719" y="1663"/>
      <point x="645" y="1663" type="curve" smooth="yes"/>
      <point x="378" y="1663"/>
      <point x="207" y="1515"/>
      <point x="207" y="1162" type="curve"/>
      <point x="19" y="1162" type="line"/>
      <point x="19" y="981" type="line"/>
      <point x="207" y="981" type="line"/>
    </contour>
    <contour>
      <point x="2072" y="1335" type="curve" smooth="yes"/>
      <point x="2199" y="1335"/>
      <point x="2303" y="1431"/>
      <point x="2303" y="1559" type="curve" smooth="yes"/>
      <point x="2303" y="1686"/>
      <point x="2197" y="1784"/>
      <point x="2072" y="1784" type="curve" smooth="yes"/>
      <point x="1946" y="1784"/>
      <point x="1848" y="1686"/>
      <point x="1848" y="1559" type="curve" smooth="yes"/>
      <point x="1848" y="1436"/>
      <point x="1942" y="1335"/>
    </contour>
  </outline>
</glyph>
